<?xml version="1.0" encoding="UTF-8"?>
<svg version="1.1" xmlns="http://www.w3.org/2000/svg" width="512" height="512">
<path d="M0 0 C3.58956634 3.9314298 5.47679665 7.58365055 5.71875 12.95703125 C5.09604083 21.09895369 -0.40159278 26.19408852 -5.88769531 31.61474609 C-6.53201508 32.25935791 -7.17633484 32.90396973 -7.84017944 33.56811523 C-9.95645198 35.6830021 -12.07970475 37.79072938 -14.203125 39.8984375 C-15.67758106 41.36916072 -17.15159417 42.84032814 -18.62518311 44.31192017 C-22.49396292 48.17308485 -26.36871241 52.028204 -30.24475098 55.88208008 C-34.20326034 59.82008534 -38.15607352 63.76379911 -42.109375 67.70703125 C-49.85903015 75.4352739 -57.61500616 83.15713954 -65.375 90.875 C-64.06757428 90.87589563 -64.06757428 90.87589563 -62.73373592 90.87680936 C-11.10249124 90.91268434 40.52869508 90.96929408 92.15988565 91.05292095 C98.35593916 91.0629387 104.55199292 91.07278278 110.74804688 91.08251953 C112.59837193 91.08543159 112.59837193 91.08543159 114.48607729 91.08840248 C134.47328775 91.11944415 154.46048671 91.13640918 174.44771673 91.14819422 C194.94846351 91.16059455 215.44914989 91.18807065 235.94985855 91.22961307 C248.60523671 91.25478047 261.26051473 91.26811491 273.91591828 91.26642957 C282.58803136 91.26639987 291.26004224 91.2809816 299.93211551 91.30716428 C304.93938156 91.32184724 309.94643801 91.32998156 314.953722 91.32080269 C319.53584466 91.31254507 324.11754531 91.3225896 328.69960521 91.34733662 C330.35918022 91.35304304 332.01879494 91.35196973 333.67835821 91.34351245 C335.93166011 91.33301128 338.18353302 91.34702202 340.43673897 91.36719131 C341.68905662 91.3687102 342.94137427 91.37022908 344.23164093 91.37179399 C349.40715528 92.13927833 352.46144107 94.65020113 356 98.375 C358.39803575 103.54000009 358.37881535 108.2752288 357.625 113.875 C355.31504495 118.85028781 352.34496397 121.1931778 347.625 123.875 C344.23164093 124.37820601 344.23164093 124.37820601 340.43673897 124.38280869 C339.73251757 124.38911244 339.02829617 124.39541619 338.30273473 124.40191096 C335.94295435 124.41817417 333.58418897 124.40600766 331.22439575 124.39398193 C329.51566817 124.39985736 327.80694587 124.4074845 326.0982331 124.416713 C321.40284663 124.43699889 316.70776184 124.43241265 312.01235151 124.42380548 C306.94898019 124.41886709 301.88568526 124.43693751 296.82234192 124.45222473 C288.04977809 124.4755564 279.27729697 124.48428441 270.50470352 124.48311615 C257.82099879 124.48144812 245.13740445 124.50176939 232.45372914 124.52747145 C211.87573366 124.56857269 191.29775801 124.59187051 170.71972656 124.60400391 C150.72914727 124.61582898 130.73860533 124.63601913 110.74804688 124.66748047 C109.51599404 124.66941657 108.28394121 124.67135267 107.01455344 124.67334744 C100.8337556 124.6831119 94.65295803 124.69304103 88.47216058 124.70305204 C37.18979204 124.78590083 -14.0925781 124.83986974 -65.375 124.875 C-64.08833687 126.15167038 -64.08833687 126.15167038 -62.77568054 127.45413208 C-54.68958334 135.47939171 -46.6114363 143.51257818 -38.54098797 151.55357552 C-34.3917225 155.68719093 -30.23971508 159.81797159 -26.08129883 163.94238281 C-22.06766879 167.92339668 -18.06142973 171.91171229 -14.0601902 175.90517807 C-12.53301266 177.42681623 -11.00319872 178.94581317 -9.47070885 180.46210098 C-7.32326851 182.58773786 -5.18542783 184.72260658 -3.04956055 186.85986328 C-2.41514542 187.48349258 -1.78073029 188.10712189 -1.12709045 188.74964905 C2.80870001 192.71319931 6.05535193 196.52412897 7.0234375 202.21875 C6.962572 207.81837588 6.35747765 212.18624199 2.16015625 216.31640625 C-1.73010675 219.65499381 -4.06806982 221.03305581 -9.125 221.125 C-10.38570312 221.16367187 -10.38570312 221.16367187 -11.671875 221.203125 C-17.1620709 220.53668503 -21.047214 217.57769751 -24.87272644 213.76495361 C-25.71805435 212.92953033 -26.56338226 212.09410706 -27.43432617 211.23336792 C-28.34311523 210.32007721 -29.2519043 209.4067865 -30.18823242 208.46582031 C-31.16884861 207.49091191 -32.15009216 206.5166342 -33.13191223 205.54293823 C-35.78756586 202.90518547 -38.43362001 200.25799929 -41.07747817 197.60842991 C-43.28887544 195.39393649 -45.50485567 193.18405772 -47.72081548 190.97413135 C-52.94987454 185.75910568 -58.17110612 180.53633436 -63.38745117 175.30859375 C-68.76191647 169.92264692 -74.1490376 164.54960517 -79.54262656 159.18281484 C-84.1801821 154.56743746 -88.80991524 149.9443158 -93.43346101 145.31490397 C-96.19181615 142.55318332 -98.95296628 139.79441741 -101.72160912 137.0430069 C-104.32520212 134.45491473 -106.91884939 131.85724526 -109.50529289 129.25201797 C-110.9042898 127.84759625 -112.3131217 126.45299284 -113.72225952 125.05874634 C-122.94825885 115.72433123 -122.94825885 115.72433123 -123.58984375 108.43359375 C-123.49832031 107.73363281 -123.40679687 107.03367187 -123.3125 106.3125 C-123.23902344 105.60996094 -123.16554688 104.90742188 -123.08984375 104.18359375 C-120.81923256 96.85063629 -114.41320856 91.60431341 -109.15942383 86.3371582 C-108.21740184 85.38586578 -107.27577206 84.43418482 -106.33450317 83.48214722 C-103.78761566 80.90915103 -101.23420031 78.34273496 -98.67868638 75.77830911 C-97.07965444 74.1733957 -95.4817953 72.56732347 -93.88428307 70.96089745 C-88.87787584 65.92718278 -83.86750929 60.89745977 -78.85130101 55.87351161 C-73.07480875 50.08805507 -67.3116343 44.28975324 -61.55968648 38.47989589 C-57.10219427 33.97910154 -52.63317169 29.48997025 -48.15531176 25.00944012 C-45.48565841 22.33769644 -42.82102882 19.66137448 -40.16831398 16.97280312 C-37.67225795 14.44366385 -35.16211492 11.92938923 -32.64073563 9.42550278 C-31.28577796 8.07280683 -29.94563256 6.70532369 -28.60609436 5.33735657 C-19.78666686 -3.3626765 -11.13353355 -7.01000261 0 0 Z " fill="#000000" transform="translate(138.375,148.125)"/>
</svg>
