<?xml version="1.0" standalone="no"?>
<!DOCTYPE svg PUBLIC "-//W3C//DTD SVG 20010904//EN"
 "http://www.w3.org/TR/2001/REC-SVG-20010904/DTD/svg10.dtd">
<svg version="1.0" xmlns="http://www.w3.org/2000/svg"
 width="512.000000pt" height="512.000000pt" viewBox="0 0 512.000000 512.000000"
 preserveAspectRatio="xMidYMid meet">

<g transform="translate(0.000000,512.000000) scale(0.100000,-0.100000)"
fill="#000000" stroke="none">
<path d="M1484 3717 c-41 -24 -1154 -1112 -1160 -1134 -3 -12 -2 -33 3 -47 9
-27 1120 -1113 1161 -1135 51 -27 121 34 106 93 -3 13 -227 238 -499 502
l-493 479 2081 5 c1145 3 2083 6 2084 8 1 1 9 15 18 32 20 39 19 63 -4 91
l-19 24 -2081 5 -2080 5 494 479 c271 263 496 489 499 502 16 63 -56 123 -110
91z"/>
</g>
</svg>
