<?xml version="1.0" standalone="no"?>
<!DOCTYPE svg PUBLIC "-//W3C//DTD SVG 20010904//EN"
 "http://www.w3.org/TR/2001/REC-SVG-20010904/DTD/svg10.dtd">
<svg version="1.0" xmlns="http://www.w3.org/2000/svg"
 width="512.000000pt" height="512.000000pt" viewBox="0 0 512.000000 512.000000"
 preserveAspectRatio="xMidYMid meet">

<g transform="translate(0.000000,512.000000) scale(0.100000,-0.100000)"
fill="#000000" stroke="none">
<path d="M2315 5109 c-797 -81 -1501 -518 -1927 -1196 -470 -747 -515 -1705
-118 -2495 452 -899 1383 -1453 2380 -1414 386 14 714 97 1050 265 610 305
1077 844 1290 1489 92 278 125 491 125 802 0 301 -32 513 -116 775 -200 626
-634 1153 -1214 1472 -259 143 -560 243 -870 289 -122 18 -477 26 -600 13z
m575 -244 c493 -70 959 -304 1315 -660 913 -913 909 -2390 -9 -3300 -514 -509
-1237 -751 -1946 -649 -694 100 -1284 481 -1660 1073 -78 125 -182 347 -233
501 -82 245 -117 468 -117 739 0 1017 661 1913 1633 2215 133 42 326 82 457
95 129 13 420 6 560 -14z"/>
<path d="M2114 3043 c-157 -313 -308 -610 -335 -662 l-49 -94 0 -223 0 -224
480 0 480 0 0 -165 0 -165 245 0 245 0 0 165 0 165 105 0 105 0 0 225 0 225
-105 0 -105 0 0 225 0 225 -245 0 -245 0 0 -225 0 -225 -220 0 -221 0 182 358
c100 196 251 493 336 660 l154 302 -260 0 -260 0 -287 -567z"/>
</g>
</svg>
