<?xml version="1.0" standalone="no"?>
<!DOCTYPE svg PUBLIC "-//W3C//DTD SVG 20010904//EN"
 "http://www.w3.org/TR/2001/REC-SVG-20010904/DTD/svg10.dtd">
<svg version="1.0" xmlns="http://www.w3.org/2000/svg"
 width="512.000000pt" height="512.000000pt" viewBox="0 0 512.000000 512.000000"
 preserveAspectRatio="xMidYMid meet">

<g transform="translate(0.000000,512.000000) scale(0.100000,-0.100000)"
fill="#000000" stroke="none">
<path d="M2315 5109 c-797 -81 -1501 -518 -1927 -1196 -470 -747 -515 -1705
-118 -2495 452 -899 1383 -1453 2380 -1414 386 14 714 97 1050 265 610 305
1077 844 1290 1489 92 278 125 491 125 802 0 301 -32 513 -116 775 -200 626
-634 1153 -1214 1472 -259 143 -560 243 -870 289 -122 18 -477 26 -600 13z
m575 -244 c493 -70 959 -304 1315 -660 913 -913 909 -2390 -9 -3300 -514 -509
-1237 -751 -1946 -649 -694 100 -1284 481 -1660 1073 -78 125 -182 347 -233
501 -82 245 -117 468 -117 739 0 1017 661 1913 1633 2215 133 42 326 82 457
95 129 13 420 6 560 -14z"/>
<path d="M2460 3628 c-200 -16 -379 -108 -510 -263 -61 -72 -119 -180 -105
-194 9 -8 384 -231 390 -231 1 0 19 27 39 59 67 108 159 163 275 163 138 0
222 -82 222 -215 0 -148 -40 -202 -522 -702 l-399 -415 2 -172 3 -173 715 0
715 0 3 232 2 233 -350 2 -350 3 230 238 c286 296 365 409 416 597 23 88 23
262 0 350 -88 328 -391 519 -776 488z"/>
</g>
</svg>
