<?xml version="1.0" standalone="no"?>
<!DOCTYPE svg PUBLIC "-//W3C//DTD SVG 20010904//EN"
 "http://www.w3.org/TR/2001/REC-SVG-20010904/DTD/svg10.dtd">
<svg version="1.0" xmlns="http://www.w3.org/2000/svg"
 width="512.000000pt" height="512.000000pt" viewBox="0 0 512.000000 512.000000"
 preserveAspectRatio="xMidYMid meet">

<g transform="translate(0.000000,512.000000) scale(0.100000,-0.100000)"
fill="#000000" stroke="none">
<path d="M2315 5109 c-797 -81 -1501 -518 -1927 -1196 -470 -747 -515 -1705
-118 -2495 452 -899 1383 -1453 2380 -1414 386 14 714 97 1050 265 610 305
1077 844 1290 1489 92 278 125 491 125 802 0 301 -32 513 -116 775 -200 626
-634 1153 -1214 1472 -259 143 -560 243 -870 289 -122 18 -477 26 -600 13z
m575 -244 c493 -70 959 -304 1315 -660 913 -913 909 -2390 -9 -3300 -514 -509
-1237 -751 -1946 -649 -694 100 -1284 481 -1660 1073 -78 125 -182 347 -233
501 -82 245 -117 468 -117 739 0 1017 661 1913 1633 2215 133 42 326 82 457
95 129 13 420 6 560 -14z"/>
<path d="M2273 3513 c-175 -64 -263 -100 -263 -110 0 -14 107 -394 112 -398 2
-1 82 20 178 46 96 27 178 49 183 49 4 0 7 -358 7 -795 l0 -795 245 0 245 0 0
1050 0 1050 -222 -1 -223 0 -262 -96z"/>
</g>
</svg>
