<?xml version="1.0" standalone="no"?>
<!DOCTYPE svg PUBLIC "-//W3C//DTD SVG 20010904//EN"
 "http://www.w3.org/TR/2001/REC-SVG-20010904/DTD/svg10.dtd">
<svg version="1.0" xmlns="http://www.w3.org/2000/svg"
 width="512.000000pt" height="512.000000pt" viewBox="0 0 512.000000 512.000000"
 preserveAspectRatio="xMidYMid meet">

<g transform="translate(0.000000,512.000000) scale(0.100000,-0.100000)"
fill="#000000" stroke="none">
<path d="M2315 5109 c-797 -81 -1501 -518 -1927 -1196 -470 -747 -515 -1705
-118 -2495 452 -899 1383 -1453 2380 -1414 386 14 714 97 1050 265 610 305
1077 844 1290 1489 92 278 125 491 125 802 0 301 -32 513 -116 775 -200 626
-634 1153 -1214 1472 -259 143 -560 243 -870 289 -122 18 -477 26 -600 13z
m575 -244 c493 -70 959 -304 1315 -660 913 -913 909 -2390 -9 -3300 -514 -509
-1237 -751 -1946 -649 -694 100 -1284 481 -1660 1073 -78 125 -182 347 -233
501 -82 245 -117 468 -117 739 0 1017 661 1913 1633 2215 133 42 326 82 457
95 129 13 420 6 560 -14z"/>
<path d="M1875 3627 c-3 -7 -4 -109 -3 -227 l3 -215 381 -5 382 -5 -189 -239
-188 -239 92 -136 93 -136 109 -6 c124 -6 170 -23 223 -83 72 -82 69 -220 -6
-299 -31 -33 -83 -61 -130 -72 -60 -13 -181 -7 -235 11 -62 21 -148 102 -166
157 -7 20 -17 37 -22 37 -9 0 -386 -216 -402 -230 -23 -20 103 -206 185 -273
148 -121 321 -178 543 -178 366 0 630 169 731 466 36 106 45 278 20 375 -48
185 -161 321 -343 411 -46 23 -83 42 -83 44 0 1 81 105 180 231 l180 229 -2
195 -3 195 -673 3 c-540 2 -674 0 -677 -11z"/>
</g>
</svg>
